<?xml version="1.0" encoding="iso-8859-1"?>
<!-- Generator: Adobe Illustrator 19.0.0, SVG Export Plug-In . SVG Version: 6.00 Build 0)  -->
<svg version="1.1" id="Capa_1" xmlns="http://www.w3.org/2000/svg" xmlns:xlink="http://www.w3.org/1999/xlink" x="0px" y="0px"
	 viewBox="0 0 512 512" style="enable-background:new 0 0 512 512;" xml:space="preserve">
<g>
	<g>
		<g>
			<path d="M469.333,42.667h-25.6V25.6c0-14.138-11.461-25.6-25.6-25.6s-25.6,11.461-25.6,25.6v17.067H119.467V25.6
				c0-14.138-11.461-25.6-25.6-25.6c-14.139,0-25.6,11.461-25.6,25.6v17.067h-25.6C19.114,42.694,0.028,61.781,0,85.333v384
				C0.028,492.886,19.114,511.972,42.667,512h426.667c23.553-0.028,42.639-19.114,42.667-42.667v-384
				C511.972,61.781,492.886,42.694,469.333,42.667z M409.6,25.6c0-4.713,3.82-8.533,8.533-8.533s8.533,3.82,8.533,8.533v51.2
				c0,4.713-3.82,8.533-8.533,8.533s-8.533-3.82-8.533-8.533V25.6z M85.333,25.6c0-4.713,3.821-8.533,8.533-8.533
				c4.713,0,8.533,3.82,8.533,8.533v51.2c0,4.713-3.821,8.533-8.533,8.533c-4.713,0-8.533-3.82-8.533-8.533V25.6z M494.933,119.467
				h-384c-4.713,0-8.533,3.82-8.533,8.533s3.82,8.533,8.533,8.533h384v332.8c-0.015,14.132-11.468,25.585-25.6,25.6H42.667
				c-14.132-0.015-25.585-11.468-25.6-25.6v-332.8H76.8c4.713,0,8.533-3.82,8.533-8.533s-3.82-8.533-8.533-8.533H17.067V85.333
				c0.015-14.132,11.468-25.585,25.6-25.6h25.6V76.8c0,14.138,11.461,25.6,25.6,25.6c14.138,0,25.6-11.462,25.6-25.6V59.733h273.067
				V76.8c0,14.138,11.462,25.6,25.6,25.6s25.6-11.462,25.6-25.6V59.733h25.6c14.132,0.015,25.585,11.468,25.6,25.6V119.467z"/>
			<path d="M251.55,460.737c78.422,2.309,144.469-58.15,149.084-136.471h31.982l23.45,15.633c2.536,1.722,5.802,1.952,8.554,0.601
				s4.568-4.075,4.757-7.135c0.189-3.06-1.279-5.986-3.844-7.665l-14.95-9.967l14.95-9.967c1.884-1.254,3.192-3.206,3.636-5.426
				c0.444-2.22-0.013-4.525-1.27-6.407c-1.254-1.884-3.206-3.193-5.426-3.636c-2.22-0.444-4.525,0.013-6.407,1.27l-23.45,15.633
				h-31.982c-4.615-78.32-70.662-138.779-149.084-136.471s-140.798,66.548-140.798,145.004S173.128,458.429,251.55,460.737z
				 M250.112,187.862c69.532-3.122,128.815,49.89,133.456,119.338h-25.6c-4.574-54.702-51.469-96.067-106.314-93.778
				s-98.13,47.418-98.13,102.311c0,54.893,43.284,100.022,98.13,102.311s101.74-39.076,106.314-93.778h25.6
				C379.052,391.427,323.312,443.628,256,443.733c-69.602,0.08-126.512-55.471-128.114-125.055S180.58,190.984,250.112,187.862z
				 M256,324.267h41.804c-4.381,21.461-24.3,36.119-46.093,33.917c-21.793-2.201-38.378-20.547-38.378-42.451
				s16.586-40.249,38.378-42.451c21.793-2.201,41.712,12.456,46.093,33.917H256c-4.713,0-8.533,3.82-8.533,8.533
				S251.287,324.267,256,324.267z M251.654,256.153c-31.25,2.244-55.456,28.25-55.456,59.58c0,31.33,24.206,57.336,55.456,59.58
				c31.25,2.244,58.923-20.038,63.398-51.047H340.9c-4.547,45.24-43.767,78.969-89.178,76.693
				c-45.411-2.276-81.061-39.759-81.061-85.226c0-45.468,35.651-82.95,81.061-85.226S336.353,261.96,340.9,307.2h-25.847
				C310.576,276.191,282.903,253.91,251.654,256.153z"/>
		</g>
	</g>
</g>
<g>
</g>
<g>
</g>
<g>
</g>
<g>
</g>
<g>
</g>
<g>
</g>
<g>
</g>
<g>
</g>
<g>
</g>
<g>
</g>
<g>
</g>
<g>
</g>
<g>
</g>
<g>
</g>
<g>
</g>
</svg>
