<?xml version="1.0" encoding="iso-8859-1"?>
<!-- Generator: Adobe Illustrator 18.1.1, SVG Export Plug-In . SVG Version: 6.00 Build 0)  -->
<svg version="1.1" id="Capa_1" xmlns="http://www.w3.org/2000/svg" xmlns:xlink="http://www.w3.org/1999/xlink" x="0px" y="0px"
	 viewBox="0 0 30 30" style="enable-background:new 0 0 30 30;" xml:space="preserve">
<g>
	<path style="fill:#010002;" d="M28,15.35V0H0v28h2.414l6.002-6h3.643c0.498,4.498,4.309,7.998,8.941,8c4.971-0.002,8.998-4.029,9-9
		C29.999,18.857,29.248,16.895,28,15.35z M12.059,20H7.584L2,25.583V2h24v11.518C24.568,12.561,22.852,12,21,12
		c-2.143,0-4.105,0.751-5.652,2H6v2h7.517C12.734,17.169,12.221,18.531,12.059,20z M21,27.882c-3.801-0.008-6.876-3.083-6.885-6.882
		c0.009-3.801,3.084-6.876,6.885-6.885c3.799,0.009,6.874,3.084,6.882,6.885C27.874,24.799,24.799,27.874,21,27.882z"/>
	<rect x="6" y="6" style="fill:#010002;" width="18" height="2"/>
	<polygon style="fill:#010002;" points="24,10 6,10 6,12 21,12 24,12 	"/>
	<path style="fill:#010002;" d="M21,24l-3-3l4.999-4.999l3,3.001L21,24z M17,25h3l-3-3V25z"/>
</g>
<g>
</g>
<g>
</g>
<g>
</g>
<g>
</g>
<g>
</g>
<g>
</g>
<g>
</g>
<g>
</g>
<g>
</g>
<g>
</g>
<g>
</g>
<g>
</g>
<g>
</g>
<g>
</g>
<g>
</g>
</svg>
