<?xml version="1.0" encoding="iso-8859-1"?>
<!-- Generator: Adobe Illustrator 19.0.0, SVG Export Plug-In . SVG Version: 6.00 Build 0)  -->
<svg version="1.1" id="Capa_1" xmlns="http://www.w3.org/2000/svg" xmlns:xlink="http://www.w3.org/1999/xlink" x="0px" y="0px"
	 viewBox="0 0 512 512" style="enable-background:new 0 0 512 512;" xml:space="preserve">
<g>
	<g>
		<path d="M489.065,107.784c-3.9-3.9-10.24-3.9-14.14,0c-3.91,3.91-3.91,10.24,0,14.14c3.9,3.91,10.24,3.91,14.14,0
			C492.975,118.024,492.975,111.694,489.065,107.784z"/>
	</g>
</g>
<g>
	<g>
		<path d="M404.216,22.935c-3.91-3.91-10.24-3.91-14.14,0c-3.91,3.9-3.91,10.24,0,14.14c3.9,3.91,10.23,3.91,14.14,0
			C408.116,33.175,408.116,26.835,404.216,22.935z"/>
	</g>
</g>
<g>
	<g>
		<path d="M390.076,206.783c-3.91-3.91-10.24-3.91-14.15,0c-3.9,3.9-3.9,10.23,0,14.14c3.91,3.9,10.24,3.9,14.15,0
			C393.976,217.013,393.976,210.683,390.076,206.783z"/>
	</g>
</g>
<g>
	<g>
		<path d="M305.217,121.924c-3.9-3.9-10.23-3.9-14.14,0c-3.9,3.91-3.9,10.24,0,14.15c3.91,3.9,10.24,3.9,14.14,0
			C309.127,132.164,309.127,125.834,305.217,121.924z"/>
	</g>
</g>
<g>
	<g>
		<path d="M164.868,347.131c-3.91-3.9-10.24-3.9-14.14,0c-3.91,3.91-3.91,10.24,0,14.14c3.9,3.91,10.23,3.91,14.14,0
			C168.768,357.371,168.768,351.041,164.868,347.131z"/>
	</g>
</g>
<g>
	<g>
		<path d="M453.007,67.479c-0.781-5.467-5.848-9.265-11.314-8.484c-5.467,0.781-9.266,5.847-8.484,11.314
			c0.394,2.753-0.508,5.458-2.473,7.423c-1.965,1.965-4.67,2.867-7.425,2.472c-9.959-1.42-19.547,2.43-25.805,9.646
			c-5.456,6.291-7.908,14.634-6.729,22.886c0.431,3.035-0.713,5.927-2.943,7.861c-1.12,0.972-3.508,2.535-6.954,2.037
			c-9.705-1.383-19.373,2.231-25.797,9.64c-5.455,6.291-7.906,14.633-6.726,22.884c0.434,3.051-0.735,5.943-2.944,7.859
			c-3.74,3.246-7.109,1.757-11.086,1.757c-8.302,0-16.202,3.619-21.674,9.93c-5.455,6.291-7.906,14.632-6.726,22.882
			c0.059,0.415,0.089,0.851,0.089,1.297c0,2.5-1.105,4.893-3.033,6.564c-1.121,0.972-3.516,2.527-6.949,2.037
			c-5.464-0.785-10.533,3.015-11.316,8.482c-0.782,5.467,3.016,10.534,8.482,11.316c8.197,1.175,16.556-1.235,22.886-6.724
			c6.312-5.472,9.931-13.372,9.931-21.675c0-4.246-1.493-7.341,1.747-11.077c1.671-1.927,4.063-3.033,6.563-3.033
			c1.909,0,13.55,2.587,24.196-6.653c7.182-6.233,11.058-15.807,9.633-25.793c-0.492-3.437,1.065-5.831,2.037-6.952
			c1.902-2.193,4.781-3.38,7.856-2.943c8.26,1.183,16.596-1.27,22.887-6.725c7.401-6.417,11.028-16.08,9.64-25.799
			c-0.491-3.439,1.066-5.834,2.039-6.956c1.904-2.195,4.794-3.386,7.865-2.949c9.045,1.296,17.936-1.668,24.396-8.127
			C451.335,85.417,454.299,76.524,453.007,67.479z"/>
	</g>
</g>
<g>
	<g>
		<path d="M471.845,250.968c-48.699-18.258-104.215-6.626-141.437,29.63c-3.956,3.854-4.039,10.185-0.186,14.141
			c3.848,3.95,10.177,4.045,14.141,0.186c31.7-30.877,78.98-40.781,120.461-25.229c5.177,1.939,10.936-0.684,12.874-5.854
			C479.637,258.671,477.016,252.906,471.845,250.968z"/>
	</g>
</g>
<g>
	<g>
		<path d="M261.571,40.702c-1.939-5.17-7.704-7.792-12.875-5.851c-5.172,1.939-7.791,7.704-5.852,12.875
			c15.604,41.599,5.614,88.967-25.45,120.679c-3.865,3.945-3.799,10.276,0.146,14.141c1.946,1.906,4.472,2.857,6.997,2.857
			c2.593,0,5.186-1.003,7.144-3.002C268.159,145.163,279.891,89.544,261.571,40.702z"/>
	</g>
</g>
<g>
	<g>
		<path d="M503.206,8.794c-11.724-11.724-30.696-11.725-42.422,0c-11.725,11.725-11.725,30.698,0,42.422
			c11.724,11.724,30.696,11.725,42.422,0C514.931,39.49,514.932,20.518,503.206,8.794z M489.064,37.073
			c-3.908,3.907-10.228,3.908-14.137,0c-3.902-3.902-3.916-10.221,0-14.138c3.908-3.907,10.228-3.908,14.137,0
			C492.965,26.837,492.98,33.157,489.064,37.073z"/>
	</g>
</g>
<g>
	<g>
		<path d="M460.787,305.771c-11.724-11.723-30.706-11.726-42.433,0c-11.697,11.698-11.697,30.733,0,42.432
			c11.724,11.722,30.706,11.725,42.433,0C472.509,336.481,472.513,317.495,460.787,305.771z M446.645,334.06
			c-3.909,3.908-10.239,3.908-14.147,0c-3.9-3.901-3.9-10.248,0-14.148c3.908-3.908,10.239-3.908,14.147,0
			C450.551,323.82,450.553,330.152,446.645,334.06z"/>
	</g>
</g>
<g>
	<g>
		<path d="M220.369,65.363c-11.717-11.717-30.692-11.729-42.418-0.005c-11.732,11.718-11.745,30.701-0.004,42.427
			c11.724,11.723,30.696,11.725,42.422,0C232.065,96.089,232.065,77.058,220.369,65.363z M206.227,93.642
			c-3.887,3.887-10.21,3.929-14.142-0.004c-3.891-3.885-3.933-10.202,0.004-14.133c3.907-3.908,10.23-3.908,14.137,0
			C210.134,83.412,210.135,89.735,206.227,93.642z"/>
	</g>
</g>
<g>
	<g>
		<path d="M354.718,30.004l7.069-7.069c3.906-3.905,3.906-10.237,0-14.142c-3.906-3.905-10.236-3.905-14.143,0l-7.068,7.069
			l-7.068-7.069c-3.904-3.905-10.234-3.905-14.143,0c-3.905,3.905-3.905,10.237,0,14.142l7.069,7.069l-7.069,7.069
			c-3.905,3.905-3.905,10.237,0,14.142c3.906,3.905,10.236,3.905,14.143,0l7.068-7.069l7.068,7.069
			c3.905,3.905,10.235,3.906,14.143,0c3.905-3.905,3.905-10.237,0-14.142L354.718,30.004z"/>
	</g>
</g>
<g>
	<g>
		<path d="M496.137,171.422l7.069-7.069c3.906-3.905,3.906-10.237,0-14.142c-3.906-3.905-10.236-3.905-14.143,0l-7.068,7.069
			l-7.068-7.069c-3.905-3.905-10.235-3.905-14.143,0c-3.905,3.905-3.905,10.237,0,14.142l7.069,7.069l-7.069,7.069
			c-3.905,3.905-3.905,10.237,0,14.142c3.906,3.905,10.236,3.905,14.143,0l7.068-7.069l7.068,7.069
			c3.905,3.905,10.235,3.906,14.143,0c3.905-3.905,3.905-10.237,0-14.142L496.137,171.422z"/>
	</g>
</g>
<g>
	<g>
		<path d="M327.906,327.058c-15.062-23.279-38.184-50.928-65.106-77.857c-26.928-26.923-54.577-50.044-77.856-65.105
			c-28.651-18.538-46.603-22.564-56.494-12.673c-1.626,1.627-2.87,3.568-3.741,5.754c-0.055,0.126-0.117,0.246-0.167,0.376
			C124.326,178.108,0.836,497.974,0.672,498.399c-1.426,3.69-0.54,7.874,2.257,10.672c2.782,2.781,6.959,3.689,10.673,2.258
			c8.128-3.138,306.001-118.138,320.846-123.869c0.137-0.053,0.264-0.119,0.397-0.177c2.179-0.871,4.115-2.112,5.734-3.731
			C350.47,373.66,346.444,355.708,327.906,327.058z M229.901,406.389c-11.98-8.922-24.581-19.318-37.507-30.967
			c-4.104-3.698-10.426-3.369-14.123,0.733c-3.698,4.103-3.369,10.426,0.733,14.123c9.884,8.907,19.602,17.114,29.037,24.549
			L27.461,484.54L97.1,304.167c7.44,9.359,15.663,19.028,24.599,28.889c3.714,4.098,10.038,4.399,14.125,0.695
			c4.092-3.708,4.404-10.032,0.695-14.125c-11.681-12.891-22.088-25.408-31.003-37.259l8.558-22.166
			c15.535,22.165,36.943,46.936,63.865,73.873c15.576,15.567,44.127,42.562,74.449,63.633L229.901,406.389z M275.26,388.868
			c-33.015-20.679-66.122-51.89-83.178-68.936c-30.935-30.952-54.177-58.709-69.185-82.581l9.404-24.363
			c2.92,5.539,6.712,11.89,11.634,19.196c15.043,22.328,37.166,48.462,62.292,73.589c25.128,25.127,51.263,47.25,73.589,62.292
			c7.301,4.919,13.656,8.716,19.192,11.636L275.26,388.868z M289.845,350.702c-21.035-14.327-45.709-35.306-69.475-59.071
			c-23.767-23.767-44.746-48.441-59.071-69.476c-13.824-20.298-17.526-31.486-18.017-35.897c4.415,0.492,15.601,4.195,35.892,18.013
			c21.033,14.324,45.711,35.303,69.484,59.071c23.77,23.774,44.748,48.452,59.072,69.485c13.817,20.291,17.521,31.477,18.013,35.892
			C321.331,368.229,310.143,364.527,289.845,350.702z"/>
	</g>
</g>
<g>
</g>
<g>
</g>
<g>
</g>
<g>
</g>
<g>
</g>
<g>
</g>
<g>
</g>
<g>
</g>
<g>
</g>
<g>
</g>
<g>
</g>
<g>
</g>
<g>
</g>
<g>
</g>
<g>
</g>
</svg>
