<?xml version="1.0" encoding="iso-8859-1"?>
<!-- Generator: Adobe Illustrator 19.0.0, SVG Export Plug-In . SVG Version: 6.00 Build 0)  -->
<svg version="1.1" id="Layer_1" xmlns="http://www.w3.org/2000/svg" xmlns:xlink="http://www.w3.org/1999/xlink" x="0px" y="0px"
	 viewBox="0 0 512 512" style="enable-background:new 0 0 512 512;" xml:space="preserve">
<g>
	<g>
		<path d="M488.701,199.237L376.314,4.577C374.678,1.745,371.657,0,368.386,0H143.613c-3.271,0-6.292,1.745-7.927,4.577
			L23.299,199.237c-1.636,2.832-1.636,6.322,0,9.154l109.743,190.081l-57.618,99.796c-2.528,4.378-1.028,9.977,3.35,12.504
			c4.377,2.528,9.975,1.028,12.504-3.35l57.618-99.796h214.205l57.618,99.796c1.695,2.937,4.772,4.578,7.936,4.578
			c1.552,0,3.127-0.395,4.568-1.228c4.378-2.528,5.878-8.126,3.35-12.504l-57.618-99.796l109.743-190.081
			C490.336,205.559,490.336,202.068,488.701,199.237z M159.467,389.319v-0.001l17.999-31.176
			c6.018,17.1,22.322,29.393,41.454,29.393c24.229,0,43.939-19.71,43.939-43.939c0-12.79-5.496-24.317-14.246-32.354
			c14.205-7.288,23.954-22.078,23.954-39.111c0-16.696-9.362-31.245-23.11-38.679l6.542-11.33l39.431,68.296
			c-8.051,7.969-13.047,19.016-13.047,31.212c0,24.229,19.71,43.939,43.939,43.939c4.013,0,7.898-0.552,11.594-1.563l14.616,25.314
			H159.467z M203.411,276.589c-0.256-1.451-0.415-2.935-0.415-4.459c0-11.057,7.05-20.472,16.88-24.06L203.411,276.589z
			 M240.289,249.332c8.281,4.254,13.971,12.866,13.971,22.797c0,14.134-11.497,25.631-25.631,25.631
			c-5.13,0-9.901-1.529-13.913-4.135L240.289,249.332z M218.921,317.964c14.134,0,25.631,11.497,25.631,25.631
			s-11.497,25.631-25.631,25.631c-14.134,0-25.631-11.497-25.631-25.631S204.787,317.964,218.921,317.964z M174.824,249.972
			c-14.134,0-25.631-11.497-25.631-25.631s11.497-25.631,25.631-25.631c14.134,0,25.631,11.497,25.631,25.631
			S188.958,249.972,174.824,249.972z M159.317,270.642c14.134,0,25.631,11.497,25.631,25.631c0,14.134-11.497,25.631-25.631,25.631
			c-14.134,0-25.631-11.497-25.631-25.631S145.185,270.642,159.317,270.642z M328.194,347.164c-0.62,0.045-1.24,0.095-1.872,0.095
			c-14.134,0-25.631-11.497-25.631-25.631c0-5.336,1.643-10.294,4.444-14.402L328.194,347.164z M320.231,296.759
			c1.957-0.48,3.989-0.762,6.089-0.762c14.134,0,25.631,11.497,25.631,25.631c0.001,6.867-2.728,13.098-7.14,17.704L320.231,296.759
			z M368.386,380.164l-14.197-24.59c9.806-8.065,16.072-20.287,16.072-33.946c0-24.229-19.71-43.939-43.939-43.939
			c-5.444,0-10.656,1.002-15.471,2.821l-46.924-81.273c-1.635-2.832-4.656-4.577-7.927-4.577c-3.271,0-6.292,1.745-7.927,4.577
			l-16.769,29.044c-0.886-0.054-1.776-0.089-2.675-0.089c-3.499,0-6.9,0.424-10.165,1.2c0.19-1.659,0.299-3.342,0.299-5.051
			c0-24.229-19.71-43.939-43.939-43.939c-12.237,0-23.317,5.034-31.292,13.133c-6.413-16.334-22.326-27.936-40.909-27.936
			c-24.229,0-43.939,19.71-43.939,43.939c0,24.229,19.71,43.939,43.939,43.939c12.237,0,23.317-5.033,31.292-13.133
			c2.206,5.619,5.529,10.68,9.707,14.898c-16.498,6.332-28.244,22.331-28.244,41.031c0,24.229,19.71,43.939,43.939,43.939
			c2.651,0,5.243-0.249,7.765-0.701l-23.471,40.652L41.797,203.814L148.897,18.308h214.204l107.102,185.505L368.386,380.164z
			 M128.254,209.538c0,14.134-11.497,25.631-25.631,25.631s-25.631-11.497-25.631-25.631c0-14.134,11.497-25.631,25.631-25.631
			S128.254,195.404,128.254,209.538z"/>
	</g>
</g>
<g>
	<g>
		<path d="M364.158,173.337c-24.229,0-43.939,19.712-43.939,43.939c0,24.229,19.71,43.939,43.939,43.939
			c24.229,0,43.939-19.71,43.939-43.939C408.098,193.047,388.387,173.337,364.158,173.337z M364.158,242.907
			c-14.134,0-25.631-11.497-25.631-25.631s11.497-25.631,25.631-25.631s25.631,11.499,25.631,25.631
			C389.79,231.41,378.292,242.907,364.158,242.907z"/>
	</g>
</g>
<g>
	<g>
		<path d="M322.052,34.684c-24.229,0-43.939,19.71-43.939,43.939c0,24.229,19.71,43.939,43.939,43.939
			c24.229,0,43.939-19.71,43.939-43.939C365.992,54.394,346.28,34.684,322.052,34.684z M322.052,104.254
			c-14.134,0-25.631-11.497-25.631-25.631s11.497-25.631,25.631-25.631c14.134,0,25.631,11.497,25.631,25.631
			S336.185,104.254,322.052,104.254z"/>
	</g>
</g>
<g>
</g>
<g>
</g>
<g>
</g>
<g>
</g>
<g>
</g>
<g>
</g>
<g>
</g>
<g>
</g>
<g>
</g>
<g>
</g>
<g>
</g>
<g>
</g>
<g>
</g>
<g>
</g>
<g>
</g>
</svg>
