<?xml version="1.0" encoding="iso-8859-1"?>
<!-- Generator: Adobe Illustrator 18.1.1, SVG Export Plug-In . SVG Version: 6.00 Build 0)  -->
<svg version="1.1" id="Capa_1" xmlns="http://www.w3.org/2000/svg" xmlns:xlink="http://www.w3.org/1999/xlink" x="0px" y="0px"
	 viewBox="0 0 71.128 71.128" style="enable-background:new 0 0 71.128 71.128;" xml:space="preserve">
<g>
	<g>
		<path style="fill:#010002;" d="M64.239,56.805c-0.56-6.772-6.441-12.037-13.252-11.826l-6.142-7.393L59.016,20.28l3.277-3.941
			c0.116-0.14,0.215-0.293,0.295-0.457c2.435-5.029,1.364-11.011-2.663-14.885c-0.45-0.434-1.061-0.659-1.685-0.625
			C57.616,0.407,57.034,0.7,56.635,1.18L43.059,17.513l-6.967,8.637l-0.375,0.451l-0.661-0.797l-7.008-8.687L14.493,0.811
			c-0.399-0.48-0.981-0.773-1.605-0.808c-0.62-0.032-1.233,0.191-1.685,0.625C7.176,4.502,6.105,10.482,8.54,15.512
			c0.08,0.164,0.179,0.318,0.295,0.459l17.62,21.454l0.134,0.161l-6.237,7.505l-0.211,0.259C13.282,45.109,7.45,50.404,6.89,57.176
			c-0.284,3.433,0.786,6.769,3.012,9.396c2.227,2.626,5.343,4.229,8.773,4.511c0.362,0.03,0.722,0.045,1.079,0.045
			c6.647,0,12.285-5.194,12.833-11.825c0.167-2.024-0.141-4.032-0.894-5.891l4.025-4.842l3.717,4.472
			c-0.753,1.857-1.061,3.866-0.894,5.891c0.548,6.631,6.186,11.825,12.834,11.825c0.001,0,0.001,0,0.001,0
			c0.356,0,0.715-0.015,1.075-0.045c3.433-0.282,6.549-1.884,8.775-4.511C63.453,63.574,64.523,60.238,64.239,56.805z
			 M39.574,29.001l6.967-8.636L58.318,6.197c1.268,2.268,1.426,5.037,0.329,7.49l-16.73,20.374l-3.273-3.939L39.574,29.001z
			 M27.72,51.152l-0.39,0.455c-0.612,0.715-0.715,1.735-0.257,2.558c0.81,1.453,1.165,3.102,1.028,4.767
			c-0.376,4.549-4.395,8.049-9.057,7.666c-2.234-0.185-4.263-1.227-5.712-2.937c-1.448-1.709-2.145-3.881-1.96-6.114
			c0.356-4.32,4.025-7.704,8.352-7.704c0.233,0,0.468,0.01,0.72,0.03l0.118,0.018c0.107,0.017,0.214,0.032,0.32,0.044
			c0.766,0.094,1.506-0.224,1.987-0.813l6.649-8.009l3.272,3.938L27.72,51.152z M57.794,63.292
			c-1.449,1.709-3.478,2.752-5.713,2.936c-0.237,0.02-0.472,0.029-0.705,0.029c-4.326,0-7.993-3.381-8.351-7.695
			c-0.137-1.665,0.219-3.313,1.027-4.765c0.459-0.822,0.356-1.842-0.254-2.558l-5.152-6.194l-1.463-1.759l-1.464-1.76l-3.275-3.938
			l-1.467-1.764l-1.052-1.264l-0.409-0.499L15.573,17.035l-3.092-3.719c-1.097-2.453-0.938-5.223,0.329-7.489l11.757,14.142
			l7.008,8.688l1.218,1.465l1.463,1.76l1.464,1.763l3.276,3.942l1.463,1.76l1.463,1.761l5.37,6.462l0.967,1.184
			c0.484,0.593,1.23,0.899,1.999,0.812c0.099-0.012,0.197-0.026,0.296-0.041l0.146-0.021c4.623-0.382,8.681,3.122,9.056,7.675
			C59.939,59.41,59.243,61.582,57.794,63.292z"/>
		<path style="fill:#010002;" d="M19.593,51.987c-3.448,0-6.253,2.806-6.253,6.255c0,3.445,2.805,6.249,6.253,6.249
			c3.447,0,6.251-2.804,6.251-6.249C25.844,54.792,23.041,51.987,19.593,51.987z M19.593,60.491c-1.242,0-2.253-1.009-2.253-2.249
			c0-1.243,1.011-2.255,2.253-2.255c1.241,0,2.251,1.012,2.251,2.255C21.844,59.482,20.835,60.491,19.593,60.491z"/>
		<path style="fill:#010002;" d="M51.413,51.604c-3.448,0-6.254,2.806-6.254,6.255c0,3.445,2.806,6.249,6.254,6.249
			c3.446,0,6.25-2.804,6.25-6.249C57.663,54.41,54.859,51.604,51.413,51.604z M51.413,60.108c-1.243,0-2.254-1.009-2.254-2.249
			c0-1.243,1.011-2.255,2.254-2.255c1.24,0,2.25,1.012,2.25,2.255C53.663,59.099,52.653,60.108,51.413,60.108z"/>
		<circle style="fill:#010002;" cx="35.659" cy="37.503" r="1.872"/>
	</g>
</g>
<g>
</g>
<g>
</g>
<g>
</g>
<g>
</g>
<g>
</g>
<g>
</g>
<g>
</g>
<g>
</g>
<g>
</g>
<g>
</g>
<g>
</g>
<g>
</g>
<g>
</g>
<g>
</g>
<g>
</g>
</svg>
