<?xml version="1.0" encoding="iso-8859-1"?>
<!-- Generator: Adobe Illustrator 19.0.0, SVG Export Plug-In . SVG Version: 6.00 Build 0)  -->
<svg version="1.1" id="Capa_1" xmlns="http://www.w3.org/2000/svg" xmlns:xlink="http://www.w3.org/1999/xlink" x="0px" y="0px"
	 viewBox="0 0 511.998 511.998" style="enable-background:new 0 0 511.998 511.998;" xml:space="preserve">
<g>
	<g>
		<g>
			<path d="M116.896,103.831c0,0,0,0,0,0.001c-6.333,6.333-9.821,14.753-9.821,23.71c0,8.956,3.488,17.377,9.821,23.71
				c6.333,6.333,14.754,9.821,23.71,9.821c8.956,0,17.377-3.488,23.71-9.821c6.333-6.333,9.821-14.753,9.821-23.71
				c0-8.957-3.488-17.377-9.821-23.71C151.243,90.758,129.97,90.759,116.896,103.831z M159.138,127.542
				c0,4.95-1.927,9.604-5.427,13.104c-3.5,3.5-8.153,5.428-13.104,5.428c-4.95,0-9.603-1.928-13.104-5.429
				c-3.5-3.499-5.427-8.152-5.427-13.103c0-4.95,1.927-9.604,5.427-13.104v0.001c7.225-7.224,18.981-7.227,26.207,0.001
				C157.211,117.938,159.138,122.591,159.138,127.542z"/>
			<path d="M446.748,461.225c-4.457-11.24-10.826-32.228-15.855-68.381c-0.571-4.103-4.363-6.973-8.462-6.396
				c-4.103,0.571-6.966,4.359-6.396,8.462c4.846,34.833,11.009,56.451,15.675,68.995l-21.923-5.893
				c-7.412-1.992-15.035,1.92-17.738,9.102l-10.564,28.065c-12.473-28.005-19.507-65.414-23.237-92.231
				c-6.54-47.01-8.595-99.361-5.946-151.395c0.63-12.367,1.37-25.095,2.382-40.933l45.484-45.484c6.883-6.884,6.883-18.084,0-24.968
				c-11.205-11.205-25.351-17.706-39.977-19.539c1.686-38.944,0.846-64.405-2.668-81.955c-0.621-3.103,1.063-6.147,4.005-7.242
				l43.13-16.037c1.717-0.639,3.552-0.519,5.171,0.337c1.636,0.864,2.784,2.335,3.23,4.14c10.071,40.685,6.327,96.89,1.586,168.05
				c-1.426,21.397-2.9,43.523-4.075,66.601c-1.767,34.705-1.23,70.916,1.556,104.719c0.323,3.918,3.603,6.884,7.466,6.884
				c0.207,0,0.415-0.008,0.624-0.025c4.128-0.34,7.199-3.962,6.859-8.091c-2.731-33.15-3.258-68.671-1.524-102.723
				c1.169-22.961,2.64-45.027,4.062-66.369c4.827-72.461,8.64-129.695-1.992-172.649c-1.466-5.923-5.397-10.952-10.784-13.798
				c-5.37-2.837-11.714-3.25-17.405-1.133l-43.13,16.037c-9.891,3.678-15.562,13.874-13.485,24.246
				c4.102,20.489,3.566,51.924,2.376,78.753c-15.413,1.425-30.433,8.021-42.209,19.796l-67.758,67.758l-8.764-8.764
				c2.735-7.81,1.013-16.847-5.219-23.079l-11.061-11.06c-1.177-1.178-1.473-3.006-0.734-4.549
				c6.893-14.403,9.078-30.362,6.319-46.151c-0.713-4.079-4.599-6.811-8.679-6.097c-4.081,0.713-6.81,4.599-6.097,8.679
				c2.219,12.695,0.464,25.522-5.074,37.095c-3.479,7.271-2.008,15.964,3.659,21.631l11.06,11.059
				c2.494,2.494,2.772,6.373,0.844,9.181c-0.126,0.155-0.24,0.316-0.352,0.478c-0.153,0.188-0.317,0.37-0.492,0.544l-38.591,38.591
				c-1.362,1.362-3.174,2.113-5.101,2.113c-1.927,0-3.739-0.751-5.102-2.114l-64.588-64.588
				c-11.709-11.709-18.086-27.279-17.956-43.842c0.13-16.557,6.759-32.029,18.663-43.564c23.4-22.675,61.564-22.771,85.072-0.214
				c1.775,1.702,3.463,3.525,5.016,5.416c2.629,3.203,7.354,3.667,10.556,1.038c3.202-2.629,3.665-7.354,1.037-10.556
				c-1.929-2.35-4.023-4.611-6.225-6.724c-14.203-13.627-32.945-21.124-52.8-21.124h-0.2c-19.926,0.051-38.712,7.647-52.895,21.39
				c-14.814,14.354-23.063,33.61-23.225,54.219c-0.163,20.613,7.774,39.992,22.349,54.567l64.584,64.583
				c0.002,0.002,0.003,0.003,0.005,0.005l22.912,22.913l-22.912,22.912l-64.589,64.589c-14.575,14.575-22.511,33.954-22.349,54.567
				c0.163,20.608,8.411,39.864,23.225,54.219c14.183,13.742,32.969,21.339,52.895,21.39h0.2c19.853,0,38.598-7.497,52.8-21.124
				c23.837-22.871,30.279-58.245,16.03-88.021c-0.738-1.544-0.443-3.373,0.734-4.551l11.06-11.06
				c6.232-6.233,7.955-15.27,5.219-23.079l8.764-8.764l67.759,67.758c11.49,11.491,26.322,18.394,42.308,19.832
				c4.359,27.087,11.717,60.581,23.729,86.324c2.29,4.906,7.178,8.003,12.558,8.003c0.179,0,0.358-0.003,0.538-0.01
				c5.59-0.214,10.477-3.735,12.448-8.973l11.472-30.479l24.69,6.636c4.952,1.328,10.147-0.221,13.56-4.051
				C447.689,471.304,448.633,465.977,446.748,461.225z M182.65,246.092l34.762-34.762l7.204,7.204l-39.863,39.864l-8.066-8.066
				C178.866,249.265,180.885,247.856,182.65,246.092z M210.635,351.318l-11.061,11.06c-5.666,5.667-7.137,14.359-3.658,21.631
				c11.448,23.924,6.27,52.346-12.884,70.724c-23.508,22.556-61.67,22.46-85.071-0.215c-11.904-11.534-18.533-27.006-18.663-43.564
				c-0.131-16.561,6.246-32.133,17.956-43.842l64.588-64.589c2.813-2.814,7.391-2.813,10.203,0l38.591,38.591
				C213.448,343.928,213.448,348.506,210.635,351.318z M313.589,387.232l-67.758-67.758l39.863-39.863l51.197,51.197
				c0.998,24.608,3.057,48.631,6.139,71.473C331.928,400.519,321.692,395.337,313.589,387.232z M336.285,308.989L296.3,269.005
				l42.362-42.362c-0.515,8.619-0.949,16.454-1.341,24.148C336.332,270.237,335.994,289.73,336.285,308.989z M217.412,326.68
				l-34.762-34.762c-1.787-1.787-3.814-3.185-5.968-4.234l13.37-13.37c0.002-0.002,0.003-0.003,0.005-0.005
				c0.002-0.002,0.003-0.003,0.005-0.005l123.527-123.527c20.946-20.944,55.028-20.944,75.973,0c1.035,1.034,1.035,2.719,0,3.753
				L217.412,326.68z"/>
			<path d="M235.226,246.362c-12.485,0-22.643,10.157-22.643,22.643c0,12.485,10.157,22.643,22.643,22.643
				c12.485,0,22.643-10.157,22.643-22.643C257.868,256.519,247.711,246.362,235.226,246.362z M235.226,276.648
				c-4.214,0-7.643-3.429-7.643-7.643c0-4.214,3.428-7.643,7.643-7.643c4.214,0,7.643,3.429,7.643,7.643
				C242.868,273.219,239.44,276.648,235.226,276.648z"/>
			<path d="M116.896,386.758c-6.333,6.334-9.821,14.754-9.821,23.711c0,8.956,3.488,17.377,9.821,23.71
				c6.333,6.333,14.754,9.821,23.71,9.821c8.956,0,17.377-3.488,23.71-9.822c13.073-13.073,13.073-34.347,0-47.421
				C151.244,373.684,129.97,373.684,116.896,386.758z M153.711,423.571c-3.501,3.501-8.154,5.429-13.104,5.429
				s-9.603-1.928-13.104-5.429c-3.5-3.499-5.427-8.152-5.427-13.103c0-4.951,1.927-9.603,5.427-13.103
				c7.225-7.226,18.981-7.225,26.207-0.001C160.935,404.59,160.935,416.346,153.711,423.571z"/>
		</g>
	</g>
</g>
<g>
</g>
<g>
</g>
<g>
</g>
<g>
</g>
<g>
</g>
<g>
</g>
<g>
</g>
<g>
</g>
<g>
</g>
<g>
</g>
<g>
</g>
<g>
</g>
<g>
</g>
<g>
</g>
<g>
</g>
</svg>
