<?xml version="1.0" encoding="UTF-8" standalone="no"?>
<svg
   xmlns:dc="http://purl.org/dc/elements/1.1/"
   xmlns:cc="http://creativecommons.org/ns#"
   xmlns:rdf="http://www.w3.org/1999/02/22-rdf-syntax-ns#"
   xmlns:svg="http://www.w3.org/2000/svg"
   xmlns="http://www.w3.org/2000/svg"
   version="1.1"
   id="svg2"
   viewBox="0 0 142.01124 142.00834"
   height="142.00833"
   width="142.01123">
  <defs
     id="defs4" />
  <metadata
     id="metadata7">
    <rdf:RDF>
      <cc:Work
         rdf:about="">
        <dc:format>image/svg+xml</dc:format>
        <dc:type
           rdf:resource="http://purl.org/dc/dcmitype/StillImage" />
        <dc:title></dc:title>
      </cc:Work>
    </rdf:RDF>
  </metadata>
  <g
     transform="translate(-293.0579,-443.58436)"
     id="layer1">
    <g
       transform="matrix(0.9957982,0,0,-0.99588957,1.2356516,1026.7741)"
       id="g4275">
      <g
         id="g4187"
         transform="translate(-0.17677669,0.53033008)">
        <g
           id="g4184" />
      </g>
      <g
         transform="matrix(1,0,0,-1,-0.17677669,1028.0688)"
         id="g4191">
        <g
           id="g4193" />
      </g>
      <g
         transform="matrix(0,-1,1,0,-149.40241,878.55417)"
         id="g4226">
        <g
           id="g4228" />
      </g>
      <g
         id="g4232"
         transform="matrix(0,-1,-1,0,878.13606,878.55417)">
        <g
           id="g4234">
          <path
             d="m 294.96578,513.74938 c -0.004,1.29646 0.041,2.4482 1.14254,3.62818 6.19471,6.27422 39.41872,39.25452 64.82696,64.53796 1.17998,1.10154 2.33172,1.14654 3.62818,1.14254 1.29646,-0.004 2.31694,0.18206 3.5144,-0.90817 22.67362,-22.79572 45.47435,-45.827 64.32303,-64.77233 1.10154,-1.17998 1.14654,-2.33172 1.14254,-3.62818 -0.004,-1.29646 -0.0523,-2.52006 -1.14254,-3.71752 -22.09528,-22.0985 -44.69641,-44.9597 -64.11991,-64.40891 -1.19746,-1.09023 -2.42106,-1.13854 -3.71752,-1.14254 -1.29646,-0.004 -2.4482,0.041 -3.62818,1.14254 -21.59415,21.48456 -43.27746,42.87956 -64.82696,64.40891 -1.09023,1.19746 -1.13854,2.42106 -1.14254,3.71752"
             id="path4236" />
        </g>
      </g>
    </g>
  </g>
</svg>
