<?xml version="1.0" encoding="UTF-8" standalone="no"?>
<svg
   xmlns:dc="http://purl.org/dc/elements/1.1/"
   xmlns:cc="http://creativecommons.org/ns#"
   xmlns:rdf="http://www.w3.org/1999/02/22-rdf-syntax-ns#"
   xmlns:svg="http://www.w3.org/2000/svg"
   xmlns="http://www.w3.org/2000/svg"
   width="597.30261mm"
   height="840.56793mm"
   viewBox="0 0 2116.4266 2978.3903"
   id="svg2"
   version="1.1">
  <defs
     id="defs4" />
  <metadata
     id="metadata7">
    <rdf:RDF>
      <cc:Work
         rdf:about="">
        <dc:format>image/svg+xml</dc:format>
        <dc:type
           rdf:resource="http://purl.org/dc/dcmitype/StillImage" />
        <dc:title></dc:title>
      </cc:Work>
    </rdf:RDF>
  </metadata>
  <g
     id="g4347"
     transform="translate(-2360.7151,-1314.4092)"
     >
    <path
       transform="translate(-297.2967,-39.2972)"
       id="path1512"
       d="m 3415.5238,1359.7064 39.9044,0"
        />
    <path
       transform="translate(-188.06375,-39.2972)"
       id="path5659"
       d="m 3415.5238,1359.7064 39.9044,0"
        />
    <path
       transform="translate(-78.830806,-39.2972)"
       id="path5366"
       d="m 3415.5238,1359.7064 39.9044,0"
        />
    <path
       transform="translate(30.402141,-39.2972)"
       id="path2732"
       d="m 3415.5238,1359.7064 39.9044,0"
        />
    <path
       transform="translate(139.63509,-39.2972)"
       id="path4125"
       d="m 3415.5238,1359.7064 39.9044,0"
        />
    <path
       transform="translate(248.86804,-39.2972)"
       id="path4956"
       d="m 3415.5238,1359.7064 39.9044,0"
        />
    <path
       transform="translate(358.10098,-39.2972)"
       id="path9016"
       d="m 3415.5238,1359.7064 39.9044,0"
        />
    <path
       transform="translate(467.33393,-39.2972)"
       id="path5345"
       d="m 3415.5238,1359.7064 39.9044,0"
        />
    <path
       transform="translate(576.56688,-39.2972)"
       id="path0033"
       d="m 3415.5238,1359.7064 39.9044,0"
        />
    <path
       transform="translate(685.79982,-39.2972)"
       id="path9117"
       d="m 3415.5238,1359.7064 39.9044,0"
        />
    <path
       transform="translate(795.03277,-39.2972)"
       id="path6535"
       d="m 3415.5238,1359.7064 39.9044,0"
        />
    <path
       transform="translate(904.26572,-39.2972)"
       id="path6029"
       d="m 3415.5238,1359.7064 39.9044,0"
        />
    <path
       transform="matrix(0.843901,0.536216,-0.536216,0.843901,2276.7342,-1657.1891)"
       id="path1691"
       d="m 3415.5238,1359.7064 39.9044,0"
        />
    <path
       transform="matrix(0,1,-1,0,5830.8481,-2001.3371)"
       id="path3010"
       d="m 3415.5238,1359.7064 39.9044,0"
        />
    <path
       transform="matrix(0,1,-1,0,5830.8481,-1892.1042)"
       id="path2255"
       d="m 3415.5238,1359.7064 39.9044,0"
        />
    <path
       transform="matrix(0,1,-1,0,5830.8481,-1782.8712)"
       id="path3003"
       d="m 3415.5238,1359.7064 39.9044,0"
        />
    <path
       transform="matrix(0,1,-1,0,5830.8481,-1673.6383)"
       id="path4515"
       d="m 3415.5238,1359.7064 39.9044,0"
        />
    <path
       transform="matrix(0,1,-1,0,5830.8481,-1564.4054)"
       id="path0685"
       d="m 3415.5238,1359.7064 39.9044,0"
        />
    <path
       transform="matrix(0,1,-1,0,5830.8481,-1455.1724)"
       id="path7000"
       d="m 3415.5238,1359.7064 39.9044,0"
        />
    <path
       transform="matrix(0,1,-1,0,5830.8481,-1345.9395)"
       id="path8113"
       d="m 3415.5238,1359.7064 39.9044,0"
        />
    <path
       transform="matrix(0,1,-1,0,5830.8481,-1236.7065)"
       id="path5886"
       d="m 3415.5238,1359.7064 39.9044,0"
        />
    <path
       transform="matrix(0,1,-1,0,5830.8481,-1127.4736)"
       id="path0648"
       d="m 3415.5238,1359.7064 39.9044,0"
        />
    <path
       transform="matrix(0,1,-1,0,5830.8481,-1018.2406)"
       id="path5150"
       d="m 3415.5238,1359.7064 39.9044,0"
        />
    <path
       transform="matrix(0,1,-1,0,5830.8481,-909.00767)"
       id="path5011"
       d="m 3415.5238,1359.7064 39.9044,0"
        />
    <path
       transform="matrix(0,1,-1,0,5830.8481,-799.77472)"
       id="path7571"
       d="m 3415.5238,1359.7064 39.9044,0"
        />
    <path
       transform="matrix(0,1,-1,0,5830.8481,-690.54177)"
       id="path7908"
       d="m 3415.5238,1359.7064 39.9044,0"
        />
    <path
       transform="matrix(0,1,-1,0,5830.8481,-581.30883)"
       id="path8506"
       d="m 3415.5238,1359.7064 39.9044,0"
        />
    <path
       transform="matrix(0,1,-1,0,5830.8481,-472.07588)"
       id="path3634"
       d="m 3415.5238,1359.7064 39.9044,0"
        />
    <path
       transform="matrix(-1,0,0,-1,7837.5353,4363.2571)"
       id="path8731"
       d="m 3415.5238,1359.7064 39.9044,0"
        />
    <path
       transform="matrix(-1,0,0,-1,7728.3024,4363.2571)"
       id="path5146"
       d="m 3415.5238,1359.7064 39.9044,0"
        />
    <path
       transform="matrix(-1,0,0,-1,7619.0694,4363.2571)"
       id="path3904"
       d="m 3415.5238,1359.7064 39.9044,0"
        />
    <path
       transform="matrix(-1,0,0,-1,7509.8365,4363.2571)"
       id="path1093"
       d="m 3415.5238,1359.7064 39.9044,0"
        />
    <path
       transform="matrix(-1,0,0,-1,7400.6035,4363.2571)"
       id="path0462"
       d="m 3415.5238,1359.7064 39.9044,0"
        />
    <path
       transform="matrix(-1,0,0,-1,7291.3706,4363.2571)"
       id="path4895"
       d="m 3415.5238,1359.7064 39.9044,0"
        />
    <path
       transform="matrix(-1,4.41e-4,-4.41e-4,-1,7182.7369,4361.7635)"
       id="path9215"
       d="m 3415.5238,1359.7064 39.9044,0"
        />
    <path
       transform="matrix(-1,4.41e-4,-4.41e-4,-1,7073.5039,4361.8117)"
       id="path7995"
       d="m 3415.5238,1359.7064 39.9044,0"
        />
    <path
       transform="matrix(-1,4.41e-4,-4.41e-4,-1,6964.271,4361.8598)"
       id="path5712"
       d="m 3415.5238,1359.7064 39.9044,0"
        />
    <path
       transform="matrix(-1,4.41e-4,-4.41e-4,-1,6855.0381,4361.908)"
       id="path9857"
       d="m 3415.5238,1359.7064 39.9044,0"
        />
    <path
       transform="matrix(-1,4.41e-4,-4.41e-4,-1,6745.8051,4361.9562)"
       id="path3952"
       d="m 3415.5238,1359.7064 39.9044,0"
        />
    <path
       transform="matrix(-1,4.41e-4,-4.41e-4,-1,6636.5722,4362.0043)"
       id="path6530"
       d="m 3415.5238,1359.7064 39.9044,0"
        />
    <path
       transform="matrix(-1,4.41e-4,-4.41e-4,-1,6527.3393,4362.0525)"
       id="path5035"
       d="m 3415.5238,1359.7064 39.9044,0"
        />
    <path
       transform="matrix(-1,4.41e-4,-4.41e-4,-1,6418.1063,4362.1007)"
       id="path6179"
       d="m 3415.5238,1359.7064 39.9044,0"
        />
    <path
       transform="matrix(-1,4.41e-4,-4.41e-4,-1,6308.8734,4362.1488)"
       id="path3970"
       d="m 3415.5238,1359.7064 39.9044,0"
        />
    <path
       transform="matrix(-1,4.41e-4,-4.41e-4,-1,6199.6404,4362.197)"
       id="path2570"
       d="m 3415.5238,1359.7064 39.9044,0"
        />
    <path
       transform="matrix(-1,4.41e-4,-4.41e-4,-1,6090.4075,4362.2452)"
       id="path6611"
       d="m 3415.5238,1359.7064 39.9044,0"
        />
    <path
       transform="matrix(-1,4.41e-4,-4.41e-4,-1,5981.1746,4362.2933)"
       id="path9816"
       d="m 3415.5238,1359.7064 39.9044,0"
        />
    <path
       transform="matrix(-0.998119,0.060525,-0.060525,-0.998119,5947.1815,4153.4996)"
       id="path1255"
       d="m 3415.5238,1359.7064 39.9044,0"
        />
    <path
       transform="matrix(-0.024451,0.999645,-0.999645,-0.024451,3810.4253,-329.72404)"
       id="path3629"
       d="m 3415.5238,1359.7064 39.9044,0"
        />
    <path
       transform="matrix(0,1,-1,0,3726.812,-254.95807)"
       id="path4449"
       d="m 3415.5238,1359.7064 39.9044,0"
        />
    <path
       transform="matrix(0,1,-1,0,3726.812,-145.72512)"
       id="path5672"
       d="m 3415.5238,1359.7064 39.9044,0"
        />
    <path
       transform="matrix(0,1,-1,0,3726.812,-36.492177)"
       id="path7194"
       d="m 3415.5238,1359.7064 39.9044,0"
        />
    <path
       transform="matrix(0,1,-1,0,3726.812,72.74077)"
       id="path6030"
       d="m 3415.5238,1359.7064 39.9044,0"
        />
    <path
       transform="matrix(0,1,-1,0,3726.812,181.97372)"
       id="path9159"
       d="m 3415.5238,1359.7064 39.9044,0"
        />
    <path
       transform="matrix(0,1,-1,0,3726.812,291.20666)"
       id="path6678"
       d="m 3415.5238,1359.7064 39.9044,0"
        />
    <path
       transform="matrix(0,1,-1,0,3726.812,400.43961)"
       id="path5843"
       d="m 3415.5238,1359.7064 39.9044,0"
        />
    <path
       transform="matrix(0,1,-1,0,3726.812,509.67256)"
       id="path9225"
       d="m 3415.5238,1359.7064 39.9044,0"
        />
    <path
       transform="matrix(0,1,-1,0,3726.812,618.90551)"
       id="path2184"
       d="m 3415.5238,1359.7064 39.9044,0"
        />
    <path
       transform="matrix(0,1,-1,0,3726.812,728.13845)"
       id="path5983"
       d="m 3415.5238,1359.7064 39.9044,0"
        />
    <path
       transform="matrix(0,1,-1,0,3726.812,837.3714)"
       id="path5888"
       d="m 3415.5238,1359.7064 39.9044,0"
        />
  </g>
</svg>
