<?xml version="1.0" encoding="UTF-8" standalone="no"?>
<svg
   xmlns:dc="http://purl.org/dc/elements/1.1/"
   xmlns:cc="http://creativecommons.org/ns#"
   xmlns:rdf="http://www.w3.org/1999/02/22-rdf-syntax-ns#"
   xmlns:svg="http://www.w3.org/2000/svg"
   xmlns="http://www.w3.org/2000/svg"
   version="1.1"
   id="svg2"
   viewBox="0 0 6803.1496 5580.7086"
   height="1575mm"
   width="1920mm">
  <defs
     id="defs4" />
  <metadata
     id="metadata7">
    <rdf:RDF>
      <cc:Work
         rdf:about="">
        <dc:format>image/svg+xml</dc:format>
        <dc:type
           rdf:resource="http://purl.org/dc/dcmitype/StillImage" />
        <dc:title></dc:title>
      </cc:Work>
    </rdf:RDF>
  </metadata>
  <g
     style="stroke:#000000;stroke-opacity:1"
     transform="translate(-12.256172,1.3623537)"
     id="g4347">
    <path
       style="fill:none;fill-rule:evenodd;stroke:#000000;stroke-width:12;stroke-linecap:butt;stroke-linejoin:miter;stroke-miterlimit:4;stroke-dasharray:none;stroke-opacity:1"
       d="m 3415.5238,1359.7064 39.9044,0"
       id="path1512"
       transform="translate(-297.2967,-39.2972)" />
    <path
       style="fill:none;fill-rule:evenodd;stroke:#000000;stroke-width:12;stroke-linecap:butt;stroke-linejoin:miter;stroke-miterlimit:4;stroke-dasharray:none;stroke-opacity:1"
       d="m 3415.5238,1359.7064 39.9044,0"
       id="path5659"
       transform="translate(-188.06375,-39.2972)" />
    <path
       style="fill:none;fill-rule:evenodd;stroke:#000000;stroke-width:12;stroke-linecap:butt;stroke-linejoin:miter;stroke-miterlimit:4;stroke-dasharray:none;stroke-opacity:1"
       d="m 3415.5238,1359.7064 39.9044,0"
       id="path5366"
       transform="translate(-78.830806,-39.2972)" />
    <path
       style="fill:none;fill-rule:evenodd;stroke:#000000;stroke-width:12;stroke-linecap:butt;stroke-linejoin:miter;stroke-miterlimit:4;stroke-dasharray:none;stroke-opacity:1"
       d="m 3415.5238,1359.7064 39.9044,0"
       id="path2732"
       transform="translate(30.402141,-39.2972)" />
    <path
       style="fill:none;fill-rule:evenodd;stroke:#000000;stroke-width:12;stroke-linecap:butt;stroke-linejoin:miter;stroke-miterlimit:4;stroke-dasharray:none;stroke-opacity:1"
       d="m 3415.5238,1359.7064 39.9044,0"
       id="path4125"
       transform="translate(139.63509,-39.2972)" />
    <path
       style="fill:none;fill-rule:evenodd;stroke:#000000;stroke-width:12;stroke-linecap:butt;stroke-linejoin:miter;stroke-miterlimit:4;stroke-dasharray:none;stroke-opacity:1"
       d="m 3415.5238,1359.7064 39.9044,0"
       id="path4956"
       transform="translate(248.86804,-39.2972)" />
    <path
       style="fill:none;fill-rule:evenodd;stroke:#000000;stroke-width:12;stroke-linecap:butt;stroke-linejoin:miter;stroke-miterlimit:4;stroke-dasharray:none;stroke-opacity:1"
       d="m 3415.5238,1359.7064 39.9044,0"
       id="path9016"
       transform="translate(358.10098,-39.2972)" />
    <path
       style="fill:none;fill-rule:evenodd;stroke:#000000;stroke-width:12;stroke-linecap:butt;stroke-linejoin:miter;stroke-miterlimit:4;stroke-dasharray:none;stroke-opacity:1"
       d="m 3415.5238,1359.7064 39.9044,0"
       id="path5345"
       transform="translate(467.33393,-39.2972)" />
    <path
       style="fill:none;fill-rule:evenodd;stroke:#000000;stroke-width:12;stroke-linecap:butt;stroke-linejoin:miter;stroke-miterlimit:4;stroke-dasharray:none;stroke-opacity:1"
       d="m 3415.5238,1359.7064 39.9044,0"
       id="path0033"
       transform="translate(576.56688,-39.2972)" />
    <path
       style="fill:none;fill-rule:evenodd;stroke:#000000;stroke-width:12;stroke-linecap:butt;stroke-linejoin:miter;stroke-miterlimit:4;stroke-dasharray:none;stroke-opacity:1"
       d="m 3415.5238,1359.7064 39.9044,0"
       id="path9117"
       transform="translate(685.79982,-39.2972)" />
    <path
       style="fill:none;fill-rule:evenodd;stroke:#000000;stroke-width:12;stroke-linecap:butt;stroke-linejoin:miter;stroke-miterlimit:4;stroke-dasharray:none;stroke-opacity:1"
       d="m 3415.5238,1359.7064 39.9044,0"
       id="path6535"
       transform="translate(795.03277,-39.2972)" />
    <path
       style="fill:none;fill-rule:evenodd;stroke:#000000;stroke-width:12;stroke-linecap:butt;stroke-linejoin:miter;stroke-miterlimit:4;stroke-dasharray:none;stroke-opacity:1"
       d="m 3415.5238,1359.7064 39.9044,0"
       id="path6029"
       transform="translate(904.26572,-39.2972)" />
    <path
       style="fill:none;fill-rule:evenodd;stroke:#000000;stroke-width:12;stroke-linecap:butt;stroke-linejoin:miter;stroke-miterlimit:4;stroke-dasharray:none;stroke-opacity:1"
       d="m 3415.5238,1359.7064 39.9044,0"
       id="path1691"
       transform="matrix(0.843901,0.536216,-0.536216,0.843901,2276.7342,-1657.1891)" />
    <path
       style="fill:none;fill-rule:evenodd;stroke:#000000;stroke-width:12;stroke-linecap:butt;stroke-linejoin:miter;stroke-miterlimit:4;stroke-dasharray:none;stroke-opacity:1"
       d="m 3415.5238,1359.7064 39.9044,0"
       id="path3010"
       transform="matrix(0,1,-1,0,5830.8481,-2001.3371)" />
    <path
       style="fill:none;fill-rule:evenodd;stroke:#000000;stroke-width:12;stroke-linecap:butt;stroke-linejoin:miter;stroke-miterlimit:4;stroke-dasharray:none;stroke-opacity:1"
       d="m 3415.5238,1359.7064 39.9044,0"
       id="path2255"
       transform="matrix(0,1,-1,0,5830.8481,-1892.1042)" />
    <path
       style="fill:none;fill-rule:evenodd;stroke:#000000;stroke-width:12;stroke-linecap:butt;stroke-linejoin:miter;stroke-miterlimit:4;stroke-dasharray:none;stroke-opacity:1"
       d="m 3415.5238,1359.7064 39.9044,0"
       id="path3003"
       transform="matrix(0,1,-1,0,5830.8481,-1782.8712)" />
    <path
       style="fill:none;fill-rule:evenodd;stroke:#000000;stroke-width:12;stroke-linecap:butt;stroke-linejoin:miter;stroke-miterlimit:4;stroke-dasharray:none;stroke-opacity:1"
       d="m 3415.5238,1359.7064 39.9044,0"
       id="path4515"
       transform="matrix(0,1,-1,0,5830.8481,-1673.6383)" />
    <path
       style="fill:none;fill-rule:evenodd;stroke:#000000;stroke-width:12;stroke-linecap:butt;stroke-linejoin:miter;stroke-miterlimit:4;stroke-dasharray:none;stroke-opacity:1"
       d="m 3415.5238,1359.7064 39.9044,0"
       id="path0685"
       transform="matrix(0,1,-1,0,5830.8481,-1564.4054)" />
    <path
       style="fill:none;fill-rule:evenodd;stroke:#000000;stroke-width:12;stroke-linecap:butt;stroke-linejoin:miter;stroke-miterlimit:4;stroke-dasharray:none;stroke-opacity:1"
       d="m 3415.5238,1359.7064 39.9044,0"
       id="path7000"
       transform="matrix(0,1,-1,0,5830.8481,-1455.1724)" />
    <path
       style="fill:none;fill-rule:evenodd;stroke:#000000;stroke-width:12;stroke-linecap:butt;stroke-linejoin:miter;stroke-miterlimit:4;stroke-dasharray:none;stroke-opacity:1"
       d="m 3415.5238,1359.7064 39.9044,0"
       id="path8113"
       transform="matrix(0,1,-1,0,5830.8481,-1345.9395)" />
    <path
       style="fill:none;fill-rule:evenodd;stroke:#000000;stroke-width:12;stroke-linecap:butt;stroke-linejoin:miter;stroke-miterlimit:4;stroke-dasharray:none;stroke-opacity:1"
       d="m 3415.5238,1359.7064 39.9044,0"
       id="path5886"
       transform="matrix(0,1,-1,0,5830.8481,-1236.7065)" />
    <path
       style="fill:none;fill-rule:evenodd;stroke:#000000;stroke-width:12;stroke-linecap:butt;stroke-linejoin:miter;stroke-miterlimit:4;stroke-dasharray:none;stroke-opacity:1"
       d="m 3415.5238,1359.7064 39.9044,0"
       id="path0648"
       transform="matrix(0,1,-1,0,5830.8481,-1127.4736)" />
    <path
       style="fill:none;fill-rule:evenodd;stroke:#000000;stroke-width:12;stroke-linecap:butt;stroke-linejoin:miter;stroke-miterlimit:4;stroke-dasharray:none;stroke-opacity:1"
       d="m 3415.5238,1359.7064 39.9044,0"
       id="path5150"
       transform="matrix(0,1,-1,0,5830.8481,-1018.2406)" />
    <path
       style="fill:none;fill-rule:evenodd;stroke:#000000;stroke-width:12;stroke-linecap:butt;stroke-linejoin:miter;stroke-miterlimit:4;stroke-dasharray:none;stroke-opacity:1"
       d="m 3415.5238,1359.7064 39.9044,0"
       id="path5011"
       transform="matrix(0,1,-1,0,5830.8481,-909.00767)" />
    <path
       style="fill:none;fill-rule:evenodd;stroke:#000000;stroke-width:12;stroke-linecap:butt;stroke-linejoin:miter;stroke-miterlimit:4;stroke-dasharray:none;stroke-opacity:1"
       d="m 3415.5238,1359.7064 39.9044,0"
       id="path7571"
       transform="matrix(0,1,-1,0,5830.8481,-799.77472)" />
    <path
       style="fill:none;fill-rule:evenodd;stroke:#000000;stroke-width:12;stroke-linecap:butt;stroke-linejoin:miter;stroke-miterlimit:4;stroke-dasharray:none;stroke-opacity:1"
       d="m 3415.5238,1359.7064 39.9044,0"
       id="path7908"
       transform="matrix(0,1,-1,0,5830.8481,-690.54177)" />
    <path
       style="fill:none;fill-rule:evenodd;stroke:#000000;stroke-width:12;stroke-linecap:butt;stroke-linejoin:miter;stroke-miterlimit:4;stroke-dasharray:none;stroke-opacity:1"
       d="m 3415.5238,1359.7064 39.9044,0"
       id="path8506"
       transform="matrix(0,1,-1,0,5830.8481,-581.30883)" />
    <path
       style="fill:none;fill-rule:evenodd;stroke:#000000;stroke-width:12;stroke-linecap:butt;stroke-linejoin:miter;stroke-miterlimit:4;stroke-dasharray:none;stroke-opacity:1"
       d="m 3415.5238,1359.7064 39.9044,0"
       id="path3634"
       transform="matrix(0,1,-1,0,5830.8481,-472.07588)" />
    <path
       style="fill:none;fill-rule:evenodd;stroke:#000000;stroke-width:12;stroke-linecap:butt;stroke-linejoin:miter;stroke-miterlimit:4;stroke-dasharray:none;stroke-opacity:1"
       d="m 3415.5238,1359.7064 39.9044,0"
       id="path8731"
       transform="matrix(-1,0,0,-1,7837.5353,4363.2571)" />
    <path
       style="fill:none;fill-rule:evenodd;stroke:#000000;stroke-width:12;stroke-linecap:butt;stroke-linejoin:miter;stroke-miterlimit:4;stroke-dasharray:none;stroke-opacity:1"
       d="m 3415.5238,1359.7064 39.9044,0"
       id="path5146"
       transform="matrix(-1,0,0,-1,7728.3024,4363.2571)" />
    <path
       style="fill:none;fill-rule:evenodd;stroke:#000000;stroke-width:12;stroke-linecap:butt;stroke-linejoin:miter;stroke-miterlimit:4;stroke-dasharray:none;stroke-opacity:1"
       d="m 3415.5238,1359.7064 39.9044,0"
       id="path3904"
       transform="matrix(-1,0,0,-1,7619.0694,4363.2571)" />
    <path
       style="fill:none;fill-rule:evenodd;stroke:#000000;stroke-width:12;stroke-linecap:butt;stroke-linejoin:miter;stroke-miterlimit:4;stroke-dasharray:none;stroke-opacity:1"
       d="m 3415.5238,1359.7064 39.9044,0"
       id="path1093"
       transform="matrix(-1,0,0,-1,7509.8365,4363.2571)" />
    <path
       style="fill:none;fill-rule:evenodd;stroke:#000000;stroke-width:12;stroke-linecap:butt;stroke-linejoin:miter;stroke-miterlimit:4;stroke-dasharray:none;stroke-opacity:1"
       d="m 3415.5238,1359.7064 39.9044,0"
       id="path0462"
       transform="matrix(-1,0,0,-1,7400.6035,4363.2571)" />
    <path
       style="fill:none;fill-rule:evenodd;stroke:#000000;stroke-width:12;stroke-linecap:butt;stroke-linejoin:miter;stroke-miterlimit:4;stroke-dasharray:none;stroke-opacity:1"
       d="m 3415.5238,1359.7064 39.9044,0"
       id="path4895"
       transform="matrix(-1,0,0,-1,7291.3706,4363.2571)" />
    <path
       style="fill:none;fill-rule:evenodd;stroke:#000000;stroke-width:12;stroke-linecap:butt;stroke-linejoin:miter;stroke-miterlimit:4;stroke-dasharray:none;stroke-opacity:1"
       d="m 3415.5238,1359.7064 39.9044,0"
       id="path9215"
       transform="matrix(-1,4.41e-4,-4.41e-4,-1,7182.7369,4361.7635)" />
    <path
       style="fill:none;fill-rule:evenodd;stroke:#000000;stroke-width:12;stroke-linecap:butt;stroke-linejoin:miter;stroke-miterlimit:4;stroke-dasharray:none;stroke-opacity:1"
       d="m 3415.5238,1359.7064 39.9044,0"
       id="path7995"
       transform="matrix(-1,4.41e-4,-4.41e-4,-1,7073.5039,4361.8117)" />
    <path
       style="fill:none;fill-rule:evenodd;stroke:#000000;stroke-width:12;stroke-linecap:butt;stroke-linejoin:miter;stroke-miterlimit:4;stroke-dasharray:none;stroke-opacity:1"
       d="m 3415.5238,1359.7064 39.9044,0"
       id="path5712"
       transform="matrix(-1,4.41e-4,-4.41e-4,-1,6964.271,4361.8598)" />
    <path
       style="fill:none;fill-rule:evenodd;stroke:#000000;stroke-width:12;stroke-linecap:butt;stroke-linejoin:miter;stroke-miterlimit:4;stroke-dasharray:none;stroke-opacity:1"
       d="m 3415.5238,1359.7064 39.9044,0"
       id="path9857"
       transform="matrix(-1,4.41e-4,-4.41e-4,-1,6855.0381,4361.908)" />
    <path
       style="fill:none;fill-rule:evenodd;stroke:#000000;stroke-width:12;stroke-linecap:butt;stroke-linejoin:miter;stroke-miterlimit:4;stroke-dasharray:none;stroke-opacity:1"
       d="m 3415.5238,1359.7064 39.9044,0"
       id="path3952"
       transform="matrix(-1,4.41e-4,-4.41e-4,-1,6745.8051,4361.9562)" />
    <path
       style="fill:none;fill-rule:evenodd;stroke:#000000;stroke-width:12;stroke-linecap:butt;stroke-linejoin:miter;stroke-miterlimit:4;stroke-dasharray:none;stroke-opacity:1"
       d="m 3415.5238,1359.7064 39.9044,0"
       id="path6530"
       transform="matrix(-1,4.41e-4,-4.41e-4,-1,6636.5722,4362.0043)" />
    <path
       style="fill:none;fill-rule:evenodd;stroke:#000000;stroke-width:12;stroke-linecap:butt;stroke-linejoin:miter;stroke-miterlimit:4;stroke-dasharray:none;stroke-opacity:1"
       d="m 3415.5238,1359.7064 39.9044,0"
       id="path5035"
       transform="matrix(-1,4.41e-4,-4.41e-4,-1,6527.3393,4362.0525)" />
    <path
       style="fill:none;fill-rule:evenodd;stroke:#000000;stroke-width:12;stroke-linecap:butt;stroke-linejoin:miter;stroke-miterlimit:4;stroke-dasharray:none;stroke-opacity:1"
       d="m 3415.5238,1359.7064 39.9044,0"
       id="path6179"
       transform="matrix(-1,4.41e-4,-4.41e-4,-1,6418.1063,4362.1007)" />
    <path
       style="fill:none;fill-rule:evenodd;stroke:#000000;stroke-width:12;stroke-linecap:butt;stroke-linejoin:miter;stroke-miterlimit:4;stroke-dasharray:none;stroke-opacity:1"
       d="m 3415.5238,1359.7064 39.9044,0"
       id="path3970"
       transform="matrix(-1,4.41e-4,-4.41e-4,-1,6308.8734,4362.1488)" />
    <path
       style="fill:none;fill-rule:evenodd;stroke:#000000;stroke-width:12;stroke-linecap:butt;stroke-linejoin:miter;stroke-miterlimit:4;stroke-dasharray:none;stroke-opacity:1"
       d="m 3415.5238,1359.7064 39.9044,0"
       id="path2570"
       transform="matrix(-1,4.41e-4,-4.41e-4,-1,6199.6404,4362.197)" />
    <path
       style="fill:none;fill-rule:evenodd;stroke:#000000;stroke-width:12;stroke-linecap:butt;stroke-linejoin:miter;stroke-miterlimit:4;stroke-dasharray:none;stroke-opacity:1"
       d="m 3415.5238,1359.7064 39.9044,0"
       id="path6611"
       transform="matrix(-1,4.41e-4,-4.41e-4,-1,6090.4075,4362.2452)" />
    <path
       style="fill:none;fill-rule:evenodd;stroke:#000000;stroke-width:12;stroke-linecap:butt;stroke-linejoin:miter;stroke-miterlimit:4;stroke-dasharray:none;stroke-opacity:1"
       d="m 3415.5238,1359.7064 39.9044,0"
       id="path9816"
       transform="matrix(-1,4.41e-4,-4.41e-4,-1,5981.1746,4362.2933)" />
    <path
       style="fill:none;fill-rule:evenodd;stroke:#000000;stroke-width:12;stroke-linecap:butt;stroke-linejoin:miter;stroke-miterlimit:4;stroke-dasharray:none;stroke-opacity:1"
       d="m 3415.5238,1359.7064 39.9044,0"
       id="path1255"
       transform="matrix(-0.998119,0.060525,-0.060525,-0.998119,5947.1815,4153.4996)" />
    <path
       style="fill:none;fill-rule:evenodd;stroke:#000000;stroke-width:12;stroke-linecap:butt;stroke-linejoin:miter;stroke-miterlimit:4;stroke-dasharray:none;stroke-opacity:1"
       d="m 3415.5238,1359.7064 39.9044,0"
       id="path3629"
       transform="matrix(-0.024451,0.999645,-0.999645,-0.024451,3810.4253,-329.72404)" />
    <path
       style="fill:none;fill-rule:evenodd;stroke:#000000;stroke-width:12;stroke-linecap:butt;stroke-linejoin:miter;stroke-miterlimit:4;stroke-dasharray:none;stroke-opacity:1"
       d="m 3415.5238,1359.7064 39.9044,0"
       id="path4449"
       transform="matrix(0,1,-1,0,3726.812,-254.95807)" />
    <path
       style="fill:none;fill-rule:evenodd;stroke:#000000;stroke-width:12;stroke-linecap:butt;stroke-linejoin:miter;stroke-miterlimit:4;stroke-dasharray:none;stroke-opacity:1"
       d="m 3415.5238,1359.7064 39.9044,0"
       id="path5672"
       transform="matrix(0,1,-1,0,3726.812,-145.72512)" />
    <path
       style="fill:none;fill-rule:evenodd;stroke:#000000;stroke-width:12;stroke-linecap:butt;stroke-linejoin:miter;stroke-miterlimit:4;stroke-dasharray:none;stroke-opacity:1"
       d="m 3415.5238,1359.7064 39.9044,0"
       id="path7194"
       transform="matrix(0,1,-1,0,3726.812,-36.492177)" />
    <path
       style="fill:none;fill-rule:evenodd;stroke:#000000;stroke-width:12;stroke-linecap:butt;stroke-linejoin:miter;stroke-miterlimit:4;stroke-dasharray:none;stroke-opacity:1"
       d="m 3415.5238,1359.7064 39.9044,0"
       id="path6030"
       transform="matrix(0,1,-1,0,3726.812,72.74077)" />
    <path
       style="fill:none;fill-rule:evenodd;stroke:#000000;stroke-width:12;stroke-linecap:butt;stroke-linejoin:miter;stroke-miterlimit:4;stroke-dasharray:none;stroke-opacity:1"
       d="m 3415.5238,1359.7064 39.9044,0"
       id="path9159"
       transform="matrix(0,1,-1,0,3726.812,181.97372)" />
    <path
       style="fill:none;fill-rule:evenodd;stroke:#000000;stroke-width:12;stroke-linecap:butt;stroke-linejoin:miter;stroke-miterlimit:4;stroke-dasharray:none;stroke-opacity:1"
       d="m 3415.5238,1359.7064 39.9044,0"
       id="path6678"
       transform="matrix(0,1,-1,0,3726.812,291.20666)" />
    <path
       style="fill:none;fill-rule:evenodd;stroke:#000000;stroke-width:12;stroke-linecap:butt;stroke-linejoin:miter;stroke-miterlimit:4;stroke-dasharray:none;stroke-opacity:1"
       d="m 3415.5238,1359.7064 39.9044,0"
       id="path5843"
       transform="matrix(0,1,-1,0,3726.812,400.43961)" />
    <path
       style="fill:none;fill-rule:evenodd;stroke:#000000;stroke-width:12;stroke-linecap:butt;stroke-linejoin:miter;stroke-miterlimit:4;stroke-dasharray:none;stroke-opacity:1"
       d="m 3415.5238,1359.7064 39.9044,0"
       id="path9225"
       transform="matrix(0,1,-1,0,3726.812,509.67256)" />
    <path
       style="fill:none;fill-rule:evenodd;stroke:#000000;stroke-width:12;stroke-linecap:butt;stroke-linejoin:miter;stroke-miterlimit:4;stroke-dasharray:none;stroke-opacity:1"
       d="m 3415.5238,1359.7064 39.9044,0"
       id="path2184"
       transform="matrix(0,1,-1,0,3726.812,618.90551)" />
    <path
       style="fill:none;fill-rule:evenodd;stroke:#000000;stroke-width:12;stroke-linecap:butt;stroke-linejoin:miter;stroke-miterlimit:4;stroke-dasharray:none;stroke-opacity:1"
       d="m 3415.5238,1359.7064 39.9044,0"
       id="path5983"
       transform="matrix(0,1,-1,0,3726.812,728.13845)" />
    <path
       style="fill:none;fill-rule:evenodd;stroke:#000000;stroke-width:12;stroke-linecap:butt;stroke-linejoin:miter;stroke-miterlimit:4;stroke-dasharray:none;stroke-opacity:1"
       d="m 3415.5238,1359.7064 39.9044,0"
       id="path5888"
       transform="matrix(0,1,-1,0,3726.812,837.3714)" />
  </g>
</svg>
